<?xml version='1.0' encoding='iso-8859-1'?>
<!DOCTYPE svg PUBLIC '-//W3C//DTD SVG 1.1//EN' 'http://www.w3.org/Graphics/SVG/1.1/DTD/svg11.dtd'>
<svg version="1.1" xmlns="http://www.w3.org/2000/svg" viewBox="0 0 512 512" xmlns:xlink="http://www.w3.org/1999/xlink" enable-background="new 0 0 512 512">
  <g>
    <path d="m271,128h16c8.837,0 16-7.163 16-16 0-8.837-7.163-16-16-16h-16c-8.837,0-16,7.163-16,16 0,8.837 7.164,16 16,16z"/>
    <path d="m271,288h16c8.837,0 16-7.163 16-16 0-8.837-7.163-16-16-16h-16c-8.837,0-16,7.163-16,16 0,8.837 7.164,16 16,16z"/>
    <path d="M430.998,208H415V64.003C415,55.165,407.835,48,398.997,48H223.003C214.165,48,207,55.165,207,64.003v159.999v159.999   c0,8.836,7.163,15.999,15.999,15.999h209.015c8.276,0,14.986-6.709,14.986-14.986V224.002C447,215.164,439.836,208,430.998,208z    M239,80h144v128H239V80z M415,368H239V240h161.033H415V368z"/>
    <path d="m431.586,432h-208.261c-3.142-28-22.325-50.909-48.325-59.8v-324.197c0-6.539-3.402-12.422-9.469-14.859l-79.664-32c-8.221-3.274-17.36,0.719-20.647,8.914-3.279,8.211 0.194,17.515 8.392,20.805l69.388,27.976v310.043c-35,4.361-63.015,34.4-63.015,71.119 0,39.703 32.394,71.999 72.074,71.999 31.229,0 57.72-20 67.654-48h212.301c9.431,0 16.956-8.17 15.89-17.822-0.901-8.162-8.106-14.178-16.318-14.178zm-279.411,48c-22.042,0-39.977-17.945-39.977-40 0-22.055 17.935-40 39.977-40 22.042,0 39.977,17.945 39.977,40-2.84217e-14,22.055-17.935,40-39.977,40z"/>
  </g>
</svg>
