<svg id="Capa_1" enable-background="new 0 0 512 512" height="512" viewBox="0 0 512 512" width="512" xmlns="http://www.w3.org/2000/svg"><g><path d="m496 482h-45v-56.158c0-26.227-9.08-51.902-25.568-72.298s-39.691-34.654-65.336-40.149l-49.096-10.521v-28.468c25.933-16.012 44.409-42.983 48.924-74.406h6.076c24.813 0 45-20.187 45-45 0-15.569-7.949-29.313-20-37.396v-22.604c0-52.383-42.617-95-95-95h-80c-52.383 0-95 42.617-95 95v22.604c-12.051 8.083-20 21.827-20 37.396 0 24.813 20.187 45 45 45h6.076c4.515 31.423 22.991 58.394 48.924 74.406v28.468l-49.096 10.521c-25.644 5.495-48.848 19.754-65.335 40.149s-25.569 46.071-25.569 72.298v56.158h-45c-8.284 0-15 6.716-15 15s6.716 15 15 15h480c8.284 0 15-6.716 15-15s-6.716-15-15-15zm-130-342c8.271 0 15 6.729 15 15s-6.729 15-15 15h-5v-30zm-215 30h-5c-8.271 0-15-6.729-15-15s6.729-15 15-15h5zm0-60v-15c0-35.841 29.159-65 65-65h80c35.841 0 65 29.159 65 65v15h-25c-26.612 0-52.032-12.71-68-34-2.833-3.777-7.278-6-12-6s-9.167 2.223-12 6c-15.967 21.29-41.388 34-68 34zm30 75v-45.11c28.111-1.242 54.91-12.909 75-32.303 20.091 19.394 46.889 31.061 75 32.303v45.11c0 41.355-33.645 75-75 75s-75-33.645-75-75zm22.259 297h-112.259v-56.158c0-39.816 28.257-74.771 67.19-83.113l47.825-10.248 14.583 43.749zm30.4 0 15.082-92h14.517l15.082 92zm5.844-143.925c5.461.865 10.978 1.309 16.497 1.309s11.036-.443 16.497-1.309l-7.309 21.925h-18.377zm41.497-32.968c-16.119 5.72-33.881 5.72-50 0v-18.122c8.016 1.965 16.387 3.015 25 3.015s16.984-1.05 25-3.015zm140 176.893h-112.259l-17.34-105.771 14.583-43.75 47.826 10.249c38.932 8.343 67.19 43.297 67.19 83.114z"/><path d="m371 406h-30c-8.284 0-15 6.716-15 15s6.716 15 15 15h30c8.284 0 15-6.716 15-15s-6.716-15-15-15z"/></g></svg>