<svg id="Calque_1" data-name="Calque 1" xmlns="http://www.w3.org/2000/svg" viewBox="0 0 71.88 90.61"><defs><style>.cls-1{fill:#91c032;}.cls-1,.cls-2,.cls-3,.cls-4{fill-rule:evenodd;}.cls-2{fill:#e88f64;}.cls-3{fill:#e9520e;}.cls-4{fill:#6fa82e;}</style></defs><title>icone-gpc</title><path class="cls-1" d="M42.48,20.78c-19.87,0-36,16.57-36,37A37.26,37.26,0,0,0,22.34,88.44a38,38,0,1,1,49.55-52A35.65,35.65,0,0,0,42.48,20.78Z" transform="translate(0 -0.06)"/><path class="cls-2" d="M38.83,62.23h.6c15.45.07,18.92,16,18.92,16l6.5-3.36s-13.42-13.75-17.34-26a141.32,141.32,0,0,1-5.13-19.74A149.77,149.77,0,0,1,40.61,8.16H38.83Z" transform="translate(0 -0.06)"/><path class="cls-3" d="M41,7a2.32,2.32,0,0,1-2.17,2.35V62.23h-.59c-15.45.07-18.92,16-18.92,16l-6.5-3.36s13.42-13.75,17.34-26a141.32,141.32,0,0,0,5.13-19.74A151.44,151.44,0,0,0,37.06,8.54a2.38,2.38,0,0,1,.82-3.74L38.64.06l.74,4.66A2.35,2.35,0,0,1,41,7Z" transform="translate(0 -0.06)"/><path class="cls-4" d="M8.1,60.78s9,25.54,31.27,24.31C60.06,84,60.71,66.57,60.71,66.57s.8-7.71-4.82-10.53a2.19,2.19,0,0,0-1.11-.3A18.53,18.53,0,0,1,39.34,60c-9.39-1.66-19-10.49-19-10.49a53,53,0,0,0,11.32-2C36.1,46,42.39,43.14,47.8,43.29c7.48.2,8.82,6.55,8.82,6.55a23,23,0,0,0-9.56-.65c-5.82.67-6.25,1-6.25,1s8.52-.51,13.23.33,13.61,1.06,12.32,17.79S46.6,91.86,35.15,90.5,13.63,84.39,8.1,60.78Z" transform="translate(0 -0.06)"/></svg>