<svg id="Calque_1" data-name="Calque 1" xmlns="http://www.w3.org/2000/svg" viewBox="0 0 512.01 425.95"><title>left-arrow2</title><path d="M8.16,275.63l184.7,185.1a28.1,28.1,0,0,0,39.64,0L249.3,444a27.82,27.82,0,0,0,8.2-19.81,28.36,28.36,0,0,0-8.15-20.05L141.59,295.92l342.71.37A27.36,27.36,0,0,0,512,268.76L512,245c0-15.45-12.18-28.78-27.63-28.8l-343.93-.37L249.66,107.26a27.75,27.75,0,0,0,0-39.35L232.93,51.16a28.1,28.1,0,0,0-39.63,0L8.2,235.85a28.27,28.27,0,0,0,0,39.78Z" transform="translate(0 -42.98)"/></svg>